<svg xmlns="http://www.w3.org/2000/svg" viewBox="0 0 96 96" fill="none">
  <title>Decifra ibis</title>
  <rect width="96" height="96" rx="25" fill="#00427A"/>
  <circle cx="26" cy="25" r="9" fill="#F5C56A"/>
  <path d="M39 65 36 82h-7m24-17 4 17h8" stroke="#F2B66A" stroke-width="5" stroke-linecap="round" stroke-linejoin="round"/>
  <path d="m27 51-12 9 18 5" fill="#142B3C"/>
  <path d="M29 43c-13 4-14 19-3 25 10 6 28 4 35-6 6-9 1-21-11-22-8-1-14 1-21 3Z" fill="#FFFCF4"/>
  <path d="M28 50c3 12 17 18 28 10-2 10-18 13-27 6-6-5-5-11-1-16Z" fill="#D9E7E6"/>
  <path d="M48 49c12-1 17-11 12-19-3-5-2-11 3-14 7-4 14 0 14 7 0 6-5 9-9 9 5 15-3 26-17 29Z" fill="#142B3C"/>
  <path d="M72 24c14 2 17 16 8 31 2-12 0-19-11-24Z" fill="#142B3C"/>
  <circle cx="69" cy="22" r="2.4" fill="#FFFCF4"/>
  <circle cx="69.5" cy="22.2" r="1.1" fill="#142B3C"/>
  <path d="M31 45c7-4 16-3 20-1" stroke="#FFF" stroke-width="3.5" stroke-linecap="round"/>
</svg>
